<svg width="180" height="180" viewBox="0 0 180 180" fill="none" xmlns="http://www.w3.org/2000/svg">
  <style>
    @media (prefers-color-scheme: light) {
      .background { fill: #166534; }
      .foreground { fill: white; }
    }
    @media (prefers-color-scheme: dark) {
      .background { fill: #166534; }
      .foreground { fill: white; }
    }
  </style>
  <g clip-path="url(#clip0)">
    <rect class="background" width="180" height="180" rx="37" />
    <!-- Hand holding heart icon -->
    <g class="foreground" transform="translate(30, 30) scale(5)">
      <!-- Heart -->
      <path fill="white" d="M12 21.35l-1.45-1.32C5.4 15.36 2 12.28 2 8.5 2 5.42 4.42 3 7.5 3c1.74 0 3.41.81 4.5 2.09C13.09 3.81 14.76 3 16.5 3 19.58 3 22 5.42 22 8.5c0 3.78-3.4 6.86-8.55 11.54L12 21.35z"/>
      <!-- Hand below -->
      <path fill="white" d="M12 24c-1.5 0-3-.5-4-1.5l-2-2c-.5-.5-.5-1.3 0-1.8s1.3-.5 1.8 0l2 2c.8.8 2.2.8 3 0l2-2c.5-.5 1.3-.5 1.8 0s.5 1.3 0 1.8l-2 2c-1 1-2.5 1.5-4 1.5z" transform="translate(0, 2)"/>
    </g>
  </g>
  <defs>
    <clipPath id="clip0">
      <rect width="180" height="180" fill="white" />
    </clipPath>
  </defs>
</svg>
