<svg width="24" height="24" viewBox="0 0 24 24" fill="none" xmlns="http://www.w3.org/2000/svg">
<rect width="24" height="24" fill="#00C950"/>
<path d="M5.39551 10.0243C5.39552 9.28944 5.61845 8.57184 6.03486 7.96631C6.45127 7.36078 7.04156 6.8958 7.72778 6.63279C8.41399 6.36978 9.16384 6.32111 9.8783 6.49321C10.5928 6.66531 11.2382 7.05009 11.7294 7.59671C11.764 7.6337 11.8058 7.66319 11.8523 7.68335C11.8987 7.70352 11.9488 7.71392 11.9995 7.71392C12.0501 7.71392 12.1002 7.70352 12.1467 7.68335C12.1932 7.66319 12.235 7.6337 12.2696 7.59671C12.7592 7.04653 13.4048 6.65853 14.1204 6.48434C14.8361 6.31015 15.5878 6.35803 16.2755 6.62162C16.9632 6.88521 17.5544 7.352 17.9702 7.95986C18.3861 8.56773 18.607 9.28783 18.6035 10.0243C18.6035 11.5366 17.6129 12.6659 16.6223 13.6565L12.9954 17.1652C12.8723 17.3066 12.7206 17.4201 12.5503 17.4983C12.38 17.5764 12.195 17.6175 12.0076 17.6187C11.8202 17.6199 11.6347 17.5812 11.4634 17.5051C11.2922 17.4291 11.139 17.3175 11.0142 17.1778L7.3767 13.6565C6.38611 12.6659 5.39551 11.5433 5.39551 10.0243Z" fill="black"/>
<path d="M13.9072 5.60999C14.8005 5.39257 15.7392 5.45189 16.5977 5.78089C17.4561 6.10991 18.1938 6.69303 18.7129 7.45179C19.2311 8.20929 19.5074 9.10632 19.5039 10.0241L19.4893 10.3785C19.3464 12.1159 18.1756 13.3757 17.2588 14.2926C17.2553 14.2961 17.2516 14.2999 17.248 14.3034L13.6211 17.8121L13.6201 17.8112C13.423 18.0223 13.1888 18.1953 12.9258 18.316C12.6395 18.4475 12.3286 18.5161 12.0137 18.5182C11.6987 18.5202 11.3866 18.4555 11.0986 18.3278C10.8305 18.2088 10.5901 18.0365 10.3887 17.8239L6.75098 14.3034C6.74748 14.3 6.74368 14.2961 6.74023 14.2926C5.763 13.3154 4.49512 11.953 4.49512 10.0241C4.49519 9.10731 4.77359 8.2121 5.29297 7.45667C5.81247 6.70122 6.5492 6.12082 7.40527 5.79261C8.26143 5.46447 9.19747 5.40314 10.0889 5.6178C10.7978 5.78856 11.4506 6.12967 11.9971 6.60413C12.5429 6.126 13.1969 5.78297 13.9072 5.60999ZM6.2959 10.0241C6.2959 11.1288 7.00378 12.01 8.00195 13.0094L11.6406 16.5309L11.6855 16.5778C11.7252 16.6222 11.7737 16.658 11.8281 16.6823C11.8827 16.7065 11.9423 16.7188 12.002 16.7184C12.0616 16.718 12.1206 16.7052 12.1748 16.6803C12.2291 16.6554 12.2772 16.6189 12.3164 16.5739C12.3332 16.5546 12.3508 16.536 12.3691 16.5182L15.9961 13.0094C16.9937 12.0105 17.7031 11.1229 17.7031 10.0241V10.0201C17.7058 9.46658 17.5401 8.9253 17.2275 8.46839C16.9149 8.01142 16.4701 7.65971 15.9531 7.46155C15.4362 7.26353 14.8709 7.2281 14.333 7.35902C13.7953 7.48997 13.3104 7.78159 12.9424 8.19495C12.9375 8.20049 12.9318 8.20614 12.9268 8.21155C12.808 8.33851 12.6644 8.4402 12.5049 8.50941C12.3454 8.57856 12.1728 8.6139 11.999 8.6139C11.8254 8.61383 11.6535 8.57849 11.4941 8.50941C11.3347 8.44021 11.191 8.3385 11.0723 8.21155C11.0682 8.20719 11.0636 8.20233 11.0596 8.19788C10.6902 7.78699 10.2051 7.49726 9.66797 7.3678C9.13054 7.23835 8.56599 7.27543 8.0498 7.47327C7.53367 7.67112 7.08958 8.02075 6.77637 8.4762C6.46319 8.93161 6.29597 9.47136 6.2959 10.0241Z" fill="black"/>
</svg>
