<svg width="180" height="180" viewBox="0 0 180 180" fill="none" xmlns="http://www.w3.org/2000/svg">
  <style>
    @media (prefers-color-scheme: light) {
      .background { fill: #166534; }
    }
    @media (prefers-color-scheme: dark) {
      .background { fill: #166534; }
    }
  </style>
  <g clip-path="url(#clip0)">
    <rect class="background" width="180" height="180" rx="37" />
    <!-- Using exact same HandHeartIcon SVG paths from the app -->
    <g transform="translate(30, 30) scale(5)" stroke="white" stroke-width="2" stroke-linecap="round" stroke-linejoin="round" fill="none">
      <!-- Hand -->
      <path d="M11 14h2a2 2 0 1 0 0-4h-3c-.6 0-1.1.2-1.4.6L3 16" />
      <path d="M7 20l1.6-1.4c.3-.4.8-.6 1.4-.6h4c1.1 0 2.1-.4 2.8-1.2l4.6-4.4a2 2 0 0 0-2.75-2.91l-4.2 3.9" />
      <path d="M2 15l6 6" />
      <!-- Heart -->
      <path d="M19.5 8.5c.7-1 1-2.5.5-4-1.5-1-3-.5-4 .5-1-1-2.5-1.5-4-.5-.5 1.5 0 3 .5 4l3.5 4 3.5-4z" />
    </g>
  </g>
  <defs>
    <clipPath id="clip0">
      <rect width="180" height="180" fill="white" />
    </clipPath>
  </defs>
</svg>
